<mxfile host="Electron" modified="2024-02-02T10:01:23.758Z" agent="Mozilla/5.0 (Windows NT 10.0; Win64; x64) AppleWebKit/537.36 (KHTML, like Gecko) draw.io/23.0.2 Chrome/120.0.6099.109 Electron/28.1.0 Safari/537.36" etag="Xp0zfFLG9BNd3CIMjiBe" version="23.0.2" type="device">
  <diagram name="Página-1" id="qp88Xz73EjjtEEX9ONFD">
    <mxGraphModel dx="1290" dy="669" grid="1" gridSize="10" guides="1" tooltips="1" connect="1" arrows="1" fold="1" page="1" pageScale="1" pageWidth="827" pageHeight="1169" math="0" shadow="0">
      <root>
        <mxCell id="0" />
        <mxCell id="1" parent="0" />
        <mxCell id="LoY-KwTF0y71DIWUAX0n-16" value="Usuário" style="swimlane;childLayout=stackLayout;horizontal=1;startSize=50;horizontalStack=0;rounded=1;fontSize=14;fontStyle=0;strokeWidth=2;resizeParent=0;resizeLast=1;shadow=0;dashed=0;align=center;arcSize=4;whiteSpace=wrap;html=1;" parent="1" vertex="1">
          <mxGeometry x="314" y="60" width="200" height="240" as="geometry" />
        </mxCell>
        <mxCell id="LoY-KwTF0y71DIWUAX0n-17" value="ID_usuario (PK);&lt;br&gt;Nome;&lt;br&gt;Data_Nascimento;&lt;br&gt;Sexo;&lt;br&gt;Morada;&lt;br&gt;Localidade;&lt;br&gt;Cod_Postal;&lt;br&gt;Telefone;&lt;br&gt;Email;&lt;br&gt;Login;&lt;br&gt;Password;&lt;br&gt;Tipo_usuario (admin/clinico/utente)" style="align=left;strokeColor=none;fillColor=none;spacingLeft=4;fontSize=12;verticalAlign=top;resizable=0;rotatable=0;part=1;html=1;" parent="LoY-KwTF0y71DIWUAX0n-16" vertex="1">
          <mxGeometry y="50" width="200" height="190" as="geometry" />
        </mxCell>
        <mxCell id="LoY-KwTF0y71DIWUAX0n-18" value="Pessoal_Admin" style="swimlane;childLayout=stackLayout;horizontal=1;startSize=50;horizontalStack=0;rounded=1;fontSize=14;fontStyle=0;strokeWidth=2;resizeParent=0;resizeLast=1;shadow=0;dashed=0;align=center;arcSize=4;whiteSpace=wrap;html=1;" parent="1" vertex="1">
          <mxGeometry x="639" y="430" width="140" height="110" as="geometry" />
        </mxCell>
        <mxCell id="LoY-KwTF0y71DIWUAX0n-19" value="ID_pAdmin (PK);&lt;br&gt;Cargo;&lt;br&gt;ID_usuario (FK);" style="align=left;strokeColor=none;fillColor=none;spacingLeft=4;fontSize=12;verticalAlign=top;resizable=0;rotatable=0;part=1;html=1;" parent="LoY-KwTF0y71DIWUAX0n-18" vertex="1">
          <mxGeometry y="50" width="140" height="60" as="geometry" />
        </mxCell>
        <mxCell id="LoY-KwTF0y71DIWUAX0n-20" value="Pessoal_Clinico" style="swimlane;childLayout=stackLayout;horizontal=1;startSize=50;horizontalStack=0;rounded=1;fontSize=14;fontStyle=0;strokeWidth=2;resizeParent=0;resizeLast=1;shadow=0;dashed=0;align=center;arcSize=4;whiteSpace=wrap;html=1;" parent="1" vertex="1">
          <mxGeometry x="344" y="430" width="140" height="110" as="geometry" />
        </mxCell>
        <mxCell id="LoY-KwTF0y71DIWUAX0n-21" value="ID_pClinico (PK);&lt;br&gt;Especialidade;&lt;br&gt;ID_usuario (FK);" style="align=left;strokeColor=none;fillColor=none;spacingLeft=4;fontSize=12;verticalAlign=top;resizable=0;rotatable=0;part=1;html=1;" parent="LoY-KwTF0y71DIWUAX0n-20" vertex="1">
          <mxGeometry y="50" width="140" height="60" as="geometry" />
        </mxCell>
        <mxCell id="LoY-KwTF0y71DIWUAX0n-22" value="Utente" style="swimlane;childLayout=stackLayout;horizontal=1;startSize=50;horizontalStack=0;rounded=1;fontSize=14;fontStyle=0;strokeWidth=2;resizeParent=0;resizeLast=1;shadow=0;dashed=0;align=center;arcSize=4;whiteSpace=wrap;html=1;" parent="1" vertex="1">
          <mxGeometry x="49" y="430" width="140" height="120" as="geometry" />
        </mxCell>
        <mxCell id="LoY-KwTF0y71DIWUAX0n-23" value="ID_utente (PK);&lt;br&gt;Entidade_Fin;&lt;br&gt;Num_utente_entFin;&lt;br&gt;ID_usuario (FK);" style="align=left;strokeColor=none;fillColor=none;spacingLeft=4;fontSize=12;verticalAlign=top;resizable=0;rotatable=0;part=1;html=1;" parent="LoY-KwTF0y71DIWUAX0n-22" vertex="1">
          <mxGeometry y="50" width="140" height="70" as="geometry" />
        </mxCell>
        <mxCell id="LoY-KwTF0y71DIWUAX0n-24" value="Especialidade" style="swimlane;childLayout=stackLayout;horizontal=1;startSize=50;horizontalStack=0;rounded=1;fontSize=14;fontStyle=0;strokeWidth=2;resizeParent=0;resizeLast=1;shadow=0;dashed=0;align=center;arcSize=4;whiteSpace=wrap;html=1;" parent="1" vertex="1">
          <mxGeometry x="1087" y="30" width="160" height="100" as="geometry" />
        </mxCell>
        <mxCell id="LoY-KwTF0y71DIWUAX0n-25" value="ID_Especilidade (PK);&lt;br&gt;Nome_Especialidade;" style="align=left;strokeColor=none;fillColor=none;spacingLeft=4;fontSize=12;verticalAlign=top;resizable=0;rotatable=0;part=1;html=1;" parent="LoY-KwTF0y71DIWUAX0n-24" vertex="1">
          <mxGeometry y="50" width="160" height="50" as="geometry" />
        </mxCell>
        <mxCell id="LoY-KwTF0y71DIWUAX0n-26" value="Exame" style="swimlane;childLayout=stackLayout;horizontal=1;startSize=50;horizontalStack=0;rounded=1;fontSize=14;fontStyle=0;strokeWidth=2;resizeParent=0;resizeLast=1;shadow=0;dashed=0;align=center;arcSize=4;whiteSpace=wrap;html=1;" parent="1" vertex="1">
          <mxGeometry x="1087" y="150" width="160" height="120" as="geometry" />
        </mxCell>
        <mxCell id="LoY-KwTF0y71DIWUAX0n-27" value="ID_Exame (PK);&lt;br&gt;Nome_Exame;&lt;br&gt;Descricao_Exame;&lt;br&gt;Prescricao_Medica (bool);" style="align=left;strokeColor=none;fillColor=none;spacingLeft=4;fontSize=12;verticalAlign=top;resizable=0;rotatable=0;part=1;html=1;" parent="LoY-KwTF0y71DIWUAX0n-26" vertex="1">
          <mxGeometry y="50" width="160" height="70" as="geometry" />
        </mxCell>
        <mxCell id="LoY-KwTF0y71DIWUAX0n-28" value="Consulta" style="swimlane;childLayout=stackLayout;horizontal=1;startSize=50;horizontalStack=0;rounded=1;fontSize=14;fontStyle=0;strokeWidth=2;resizeParent=0;resizeLast=1;shadow=0;dashed=0;align=center;arcSize=4;whiteSpace=wrap;html=1;" parent="1" vertex="1">
          <mxGeometry x="900" y="30" width="160" height="150" as="geometry" />
        </mxCell>
        <mxCell id="LoY-KwTF0y71DIWUAX0n-29" value="ID_consulta (PK);&lt;br&gt;Data_consulta;&lt;br&gt;Hora_consulta;&lt;br&gt;ID_utente (FK);&lt;br&gt;ID_pClinico (FK);&lt;br&gt;ID_Exame (FK);" style="align=left;strokeColor=none;fillColor=none;spacingLeft=4;fontSize=12;verticalAlign=top;resizable=0;rotatable=0;part=1;html=1;" parent="LoY-KwTF0y71DIWUAX0n-28" vertex="1">
          <mxGeometry y="50" width="160" height="100" as="geometry" />
        </mxCell>
        <mxCell id="LoY-KwTF0y71DIWUAX0n-30" value="RCU" style="swimlane;childLayout=stackLayout;horizontal=1;startSize=50;horizontalStack=0;rounded=1;fontSize=14;fontStyle=0;strokeWidth=2;resizeParent=0;resizeLast=1;shadow=0;dashed=0;align=center;arcSize=4;whiteSpace=wrap;html=1;" parent="1" vertex="1">
          <mxGeometry x="900" y="205" width="160" height="140" as="geometry" />
        </mxCell>
        <mxCell id="LoY-KwTF0y71DIWUAX0n-31" value="ID_RCU (PK);&lt;br&gt;Grupo_Sang;&lt;br&gt;Alergias;&lt;br&gt;Historico_Clinico;&lt;br&gt;ID_utente (FK);" style="align=left;strokeColor=none;fillColor=none;spacingLeft=4;fontSize=12;verticalAlign=top;resizable=0;rotatable=0;part=1;html=1;" parent="LoY-KwTF0y71DIWUAX0n-30" vertex="1">
          <mxGeometry y="50" width="160" height="90" as="geometry" />
        </mxCell>
        <mxCell id="LoY-KwTF0y71DIWUAX0n-33" style="edgeStyle=orthogonalEdgeStyle;rounded=0;orthogonalLoop=1;jettySize=auto;html=1;exitX=0.5;exitY=1;exitDx=0;exitDy=0;entryX=0.5;entryY=0;entryDx=0;entryDy=0;" parent="1" source="LoY-KwTF0y71DIWUAX0n-17" target="LoY-KwTF0y71DIWUAX0n-22" edge="1">
          <mxGeometry relative="1" as="geometry" />
        </mxCell>
        <mxCell id="LoY-KwTF0y71DIWUAX0n-36" style="edgeStyle=orthogonalEdgeStyle;rounded=0;orthogonalLoop=1;jettySize=auto;html=1;exitX=0.5;exitY=1;exitDx=0;exitDy=0;entryX=0.5;entryY=0;entryDx=0;entryDy=0;" parent="1" source="LoY-KwTF0y71DIWUAX0n-17" target="LoY-KwTF0y71DIWUAX0n-20" edge="1">
          <mxGeometry relative="1" as="geometry" />
        </mxCell>
        <mxCell id="LoY-KwTF0y71DIWUAX0n-37" style="edgeStyle=orthogonalEdgeStyle;rounded=0;orthogonalLoop=1;jettySize=auto;html=1;exitX=0.5;exitY=1;exitDx=0;exitDy=0;" parent="1" source="LoY-KwTF0y71DIWUAX0n-17" target="LoY-KwTF0y71DIWUAX0n-18" edge="1">
          <mxGeometry relative="1" as="geometry" />
        </mxCell>
      </root>
    </mxGraphModel>
  </diagram>
</mxfile>
